<?xml version="1.0" encoding="UTF-8"?>
<!DOCTYPE svg PUBLIC "-//W3C//DTD SVG 1.1//EN" "http://www.w3.org/Graphics/SVG/1.1/DTD/svg11.dtd">
<svg xmlns="http://www.w3.org/2000/svg" version="1.1" width="200px" height="200px" style="shape-rendering:geometricPrecision; text-rendering:geometricPrecision; image-rendering:optimizeQuality; fill-rule:evenodd; clip-rule:evenodd" xmlns:xlink="http://www.w3.org/1999/xlink">
<g><path style="opacity:1" fill="#fdfdfd" d="M -0.5,-0.5 C 66.1667,-0.5 132.833,-0.5 199.5,-0.5C 199.5,66.1667 199.5,132.833 199.5,199.5C 132.833,199.5 66.1667,199.5 -0.5,199.5C -0.5,132.833 -0.5,66.1667 -0.5,-0.5 Z"/></g>
<g><path style="opacity:1" fill="#151515" d="M 58.5,0.5 C 67.6744,6.54076 76.0077,13.7074 83.5,22C 92.0059,29.0088 100.339,36.1755 108.5,43.5C 125.021,29.4022 141.354,15.0688 157.5,0.5C 158.799,1.09001 159.632,2.09001 160,3.5C 161.922,12.137 160.089,19.8036 154.5,26.5C 159.546,33.6103 163.546,41.9437 166.5,51.5C 166.124,58.235 165.791,64.9016 165.5,71.5C 160.503,57.5091 152.503,45.5091 141.5,35.5C 132.57,41.5945 124.07,48.2612 116,55.5C 115.667,55.1667 115.333,54.8333 115,54.5C 113.261,56.7411 111.094,58.4078 108.5,59.5C 96.6124,51.997 85.779,43.997 76,35.5C 67.8606,43.6617 61.1939,52.9951 56,63.5C 54.7575,69.6278 53.0908,75.6278 51,81.5C 49.5464,89.7861 49.213,98.1195 50,106.5C 65.1364,87.6028 84.4698,77.6028 108,76.5C 108.667,86.5 108.667,96.5 108,106.5C 104.775,101.881 101.941,97.0475 99.5,92C 78.0183,95.0777 63.0183,107.078 54.5,128C 54.6981,139.61 54.6981,150.777 54.5,161.5C 58.1534,174.307 62.6534,186.641 68,198.5C 56.013,189.073 47.013,176.739 41,161.5C 37.9411,151.333 35.1077,141.166 32.5,131C 32.748,115.317 32.748,99.4839 32.5,83.5C 36.148,65.8749 43.3146,49.8749 54,35.5C 56.4626,32.0354 59.2959,28.8688 62.5,26C 56.8858,19.5153 55.0524,12.0153 57,3.5C 57.5133,2.47344 58.0133,1.47344 58.5,0.5 Z"/></g>
<g><path style="opacity:1" fill="#1b1b1b" d="M 92.5,11.5 C 103.007,10.1765 113.674,10.1765 124.5,11.5C 119.77,16.5625 114.436,20.8958 108.5,24.5C 102.544,20.8724 97.2112,16.539 92.5,11.5 Z"/></g>
<g><path style="opacity:1" fill="#d71535" d="M 72.5,46.5 C 75.8167,47.3054 78.4834,49.1388 80.5,52C 77.7797,55.8753 78.4463,59.2086 82.5,62C 86.6237,63.0557 90.2904,62.2224 93.5,59.5C 96.9579,61.9743 99.9579,63.9743 102.5,65.5C 100.951,69.5349 97.951,72.0349 93.5,73C 81.6387,76.446 73.1387,72.6127 68,61.5C 67.1844,55.7538 68.6844,50.7538 72.5,46.5 Z"/></g>
<g><path style="opacity:1" fill="#d71435" d="M 143.5,46.5 C 149.809,51.8123 150.976,58.1457 147,65.5C 143.139,71.7962 137.472,74.4629 130,73.5C 124.139,73.5873 119.139,71.5873 115,67.5C 114.312,66.6683 114.479,66.0016 115.5,65.5C 118.45,63.8847 121.116,61.8847 123.5,59.5C 127.101,62.4908 131.101,63.1575 135.5,61.5C 139.004,58.6561 139.337,55.4894 136.5,52C 138.903,50.147 141.236,48.3137 143.5,46.5 Z"/></g>
</svg>
